<?xml version="1.0" encoding="UTF-8" standalone="no"?><svg xmlns="http://www.w3.org/2000/svg" xmlns:xlink="http://www.w3.org/1999/xlink" contentStyleType="text/css" height="571px" preserveAspectRatio="none" style="width:287px;height:571px;background:#FFFFFF;" version="1.1" viewBox="0 0 287 571" width="287px" zoomAndPan="magnify"><defs/><g><!--MD5=[b3c0514fa69bffb9c22fb6650bde9461]
class customer--><g id="elem_customer"><rect codeLine="1" fill="#F1F1F1" height="85.2422" id="customer" rx="2.5" ry="2.5" style="stroke:#181818;stroke-width:0.5;" width="182" x="18.5" y="189"/><ellipse cx="76.25" cy="205" fill="#ADD1B2" rx="11" ry="11" style="stroke:#181818;stroke-width:1.0;"/><path d="M75.1094,205.7969 L75.1094,208.2969 L79.4375,208.2969 L79.4375,207.375 Q79.4375,206.7656 79.6719,206.5 Q79.9219,206.2344 80.2969,206.2344 Q80.6719,206.2344 80.9063,206.5 Q81.1406,206.7656 81.1406,207.375 L81.1406,210 L73.1406,210 Q72.5156,210 72.25,209.7656 Q72,209.5313 72,209.1406 Q72,208.7656 72.2656,208.5313 Q72.5313,208.2969 73.1406,208.2969 L73.4063,208.2969 L73.4063,201.6406 L73.1406,201.6406 Q72.5156,201.6406 72.25,201.4063 Q72,201.1719 72,200.7813 Q72,200.4063 72.25,200.1719 Q72.5156,199.9375 73.1406,199.9375 L80.7656,199.9375 L80.7656,202.5313 Q80.7656,203.1406 80.5313,203.4063 Q80.3125,203.6563 79.9219,203.6563 Q79.5469,203.6563 79.3125,203.4063 Q79.0781,203.1406 79.0781,202.5313 L79.0781,201.6406 L75.1094,201.6406 L75.1094,204.0938 L76.5938,204.0938 Q76.5938,203.4375 76.7188,203.25 Q76.9844,202.8438 77.4531,202.8438 Q77.8281,202.8438 78.0625,203.1094 Q78.2969,203.3594 78.2969,203.9688 L78.2969,205.9375 Q78.2969,206.4844 78.1719,206.6719 Q77.9063,207.0625 77.4531,207.0625 Q76.9844,207.0625 76.7188,206.6563 Q76.5938,206.4688 76.5938,205.7969 L75.1094,205.7969 Z " fill="#000000"/><text fill="#000000" font-family="sans-serif" font-size="14" lengthAdjust="spacing" textLength="58" x="96.75" y="210.7969">customer</text><line style="stroke:#181818;stroke-width:0.5;" x1="19.5" x2="199.5" y1="221" y2="221"/><ellipse cx="29.5" cy="235.8105" fill="#000000" rx="3" ry="3" style="stroke:#000000;stroke-width:1.0;"/><text fill="#000000" font-family="sans-serif" font-size="14" lengthAdjust="spacing" textLength="152" x="38.5" y="240.1074">id: number «generated»</text><line style="stroke:#181818;stroke-width:1.0;" x1="19.5" x2="199.5" y1="247.6211" y2="247.6211"/><ellipse cx="29.5" cy="262.4316" fill="#000000" rx="3" ry="3" style="stroke:#000000;stroke-width:1.0;"/><text fill="#000000" font-family="sans-serif" font-size="14" lengthAdjust="spacing" textLength="156" x="38.5" y="266.7285">username: text «unique»</text></g><!--MD5=[76410cda49e5d7b75c5bd06aa47a685f]
class message--><g id="elem_message"><rect codeLine="7" fill="#F1F1F1" height="122.4844" id="message" rx="2.5" ry="2.5" style="stroke:#181818;stroke-width:0.5;" width="197" x="83" y="7"/><ellipse cx="148.75" cy="23" fill="#ADD1B2" rx="11" ry="11" style="stroke:#181818;stroke-width:1.0;"/><path d="M147.6094,23.7969 L147.6094,26.2969 L151.9375,26.2969 L151.9375,25.375 Q151.9375,24.7656 152.1719,24.5 Q152.4219,24.2344 152.7969,24.2344 Q153.1719,24.2344 153.4063,24.5 Q153.6406,24.7656 153.6406,25.375 L153.6406,28 L145.6406,28 Q145.0156,28 144.75,27.7656 Q144.5,27.5313 144.5,27.1406 Q144.5,26.7656 144.7656,26.5313 Q145.0313,26.2969 145.6406,26.2969 L145.9063,26.2969 L145.9063,19.6406 L145.6406,19.6406 Q145.0156,19.6406 144.75,19.4063 Q144.5,19.1719 144.5,18.7813 Q144.5,18.4063 144.75,18.1719 Q145.0156,17.9375 145.6406,17.9375 L153.2656,17.9375 L153.2656,20.5313 Q153.2656,21.1406 153.0313,21.4063 Q152.8125,21.6563 152.4219,21.6563 Q152.0469,21.6563 151.8125,21.4063 Q151.5781,21.1406 151.5781,20.5313 L151.5781,19.6406 L147.6094,19.6406 L147.6094,22.0938 L149.0938,22.0938 Q149.0938,21.4375 149.2188,21.25 Q149.4844,20.8438 149.9531,20.8438 Q150.3281,20.8438 150.5625,21.1094 Q150.7969,21.3594 150.7969,21.9688 L150.7969,23.9375 Q150.7969,24.4844 150.6719,24.6719 Q150.4063,25.0625 149.9531,25.0625 Q149.4844,25.0625 149.2188,24.6563 Q149.0938,24.4688 149.0938,23.7969 L147.6094,23.7969 Z " fill="#000000"/><text fill="#000000" font-family="sans-serif" font-size="14" lengthAdjust="spacing" textLength="57" x="169.25" y="28.7969">message</text><line style="stroke:#181818;stroke-width:0.5;" x1="84" x2="279" y1="39" y2="39"/><ellipse cx="94" cy="53.8105" fill="#000000" rx="3" ry="3" style="stroke:#000000;stroke-width:1.0;"/><text fill="#000000" font-family="sans-serif" font-size="14" lengthAdjust="spacing" textLength="152" x="103" y="58.1074">id: number «generated»</text><line style="stroke:#181818;stroke-width:1.0;" x1="84" x2="279" y1="65.6211" y2="65.6211"/><ellipse cx="94" cy="80.4316" fill="#000000" rx="3" ry="3" style="stroke:#000000;stroke-width:1.0;"/><text fill="#000000" font-family="sans-serif" font-size="14" lengthAdjust="spacing" textLength="171" x="103" y="84.7285">customer_id: number «FK»</text><ellipse cx="94" cy="99.0527" fill="#000000" rx="3" ry="3" style="stroke:#000000;stroke-width:1.0;"/><text fill="#000000" font-family="sans-serif" font-size="14" lengthAdjust="spacing" textLength="140" x="103" y="103.3496">chat_id: number «FK»</text><ellipse cx="94" cy="117.6738" fill="#000000" rx="3" ry="3" style="stroke:#000000;stroke-width:1.0;"/><text fill="#000000" font-family="sans-serif" font-size="14" lengthAdjust="spacing" textLength="111" x="103" y="121.9707">msg_content: text</text></g><!--MD5=[6ab35aaf482b3413b5cc874b4ff6df7b]
class customer_chat--><g id="elem_customer_chat"><rect codeLine="15" fill="#F1F1F1" height="85.2422" id="customer_chat" rx="2.5" ry="2.5" style="stroke:#181818;stroke-width:0.5;" width="197" x="7" y="334"/><ellipse cx="54.75" cy="350" fill="#ADD1B2" rx="11" ry="11" style="stroke:#181818;stroke-width:1.0;"/><path d="M53.6094,350.7969 L53.6094,353.2969 L57.9375,353.2969 L57.9375,352.375 Q57.9375,351.7656 58.1719,351.5 Q58.4219,351.2344 58.7969,351.2344 Q59.1719,351.2344 59.4063,351.5 Q59.6406,351.7656 59.6406,352.375 L59.6406,355 L51.6406,355 Q51.0156,355 50.75,354.7656 Q50.5,354.5313 50.5,354.1406 Q50.5,353.7656 50.7656,353.5313 Q51.0313,353.2969 51.6406,353.2969 L51.9063,353.2969 L51.9063,346.6406 L51.6406,346.6406 Q51.0156,346.6406 50.75,346.4063 Q50.5,346.1719 50.5,345.7813 Q50.5,345.4063 50.75,345.1719 Q51.0156,344.9375 51.6406,344.9375 L59.2656,344.9375 L59.2656,347.5313 Q59.2656,348.1406 59.0313,348.4063 Q58.8125,348.6563 58.4219,348.6563 Q58.0469,348.6563 57.8125,348.4063 Q57.5781,348.1406 57.5781,347.5313 L57.5781,346.6406 L53.6094,346.6406 L53.6094,349.0938 L55.0938,349.0938 Q55.0938,348.4375 55.2188,348.25 Q55.4844,347.8438 55.9531,347.8438 Q56.3281,347.8438 56.5625,348.1094 Q56.7969,348.3594 56.7969,348.9688 L56.7969,350.9375 Q56.7969,351.4844 56.6719,351.6719 Q56.4063,352.0625 55.9531,352.0625 Q55.4844,352.0625 55.2188,351.6563 Q55.0938,351.4688 55.0938,350.7969 L53.6094,350.7969 Z " fill="#000000"/><text fill="#000000" font-family="sans-serif" font-size="14" lengthAdjust="spacing" textLength="93" x="75.25" y="355.7969">customer_chat</text><line style="stroke:#181818;stroke-width:0.5;" x1="8" x2="203" y1="366" y2="366"/><ellipse cx="18" cy="380.8105" fill="#000000" rx="3" ry="3" style="stroke:#000000;stroke-width:1.0;"/><text fill="#000000" font-family="sans-serif" font-size="14" lengthAdjust="spacing" textLength="140" x="27" y="385.1074">chat_id: number «FK»</text><ellipse cx="18" cy="399.4316" fill="#000000" rx="3" ry="3" style="stroke:#000000;stroke-width:1.0;"/><text fill="#000000" font-family="sans-serif" font-size="14" lengthAdjust="spacing" textLength="171" x="27" y="403.7285">customer_id: number «FK»</text><line style="stroke:#181818;stroke-width:0.5;" x1="8" x2="203" y1="411.2422" y2="411.2422"/></g><!--MD5=[6bb6e558aeb000ced9fcefdd74c5bd94]
class chat--><g id="elem_chat"><rect codeLine="20" fill="#F1F1F1" height="85.2422" id="chat" rx="2.5" ry="2.5" style="stroke:#181818;stroke-width:0.5;" width="178" x="92.5" y="479"/><ellipse cx="163.75" cy="495" fill="#ADD1B2" rx="11" ry="11" style="stroke:#181818;stroke-width:1.0;"/><path d="M162.6094,495.7969 L162.6094,498.2969 L166.9375,498.2969 L166.9375,497.375 Q166.9375,496.7656 167.1719,496.5 Q167.4219,496.2344 167.7969,496.2344 Q168.1719,496.2344 168.4063,496.5 Q168.6406,496.7656 168.6406,497.375 L168.6406,500 L160.6406,500 Q160.0156,500 159.75,499.7656 Q159.5,499.5313 159.5,499.1406 Q159.5,498.7656 159.7656,498.5313 Q160.0313,498.2969 160.6406,498.2969 L160.9063,498.2969 L160.9063,491.6406 L160.6406,491.6406 Q160.0156,491.6406 159.75,491.4063 Q159.5,491.1719 159.5,490.7813 Q159.5,490.4063 159.75,490.1719 Q160.0156,489.9375 160.6406,489.9375 L168.2656,489.9375 L168.2656,492.5313 Q168.2656,493.1406 168.0313,493.4063 Q167.8125,493.6563 167.4219,493.6563 Q167.0469,493.6563 166.8125,493.4063 Q166.5781,493.1406 166.5781,492.5313 L166.5781,491.6406 L162.6094,491.6406 L162.6094,494.0938 L164.0938,494.0938 Q164.0938,493.4375 164.2188,493.25 Q164.4844,492.8438 164.9531,492.8438 Q165.3281,492.8438 165.5625,493.1094 Q165.7969,493.3594 165.7969,493.9688 L165.7969,495.9375 Q165.7969,496.4844 165.6719,496.6719 Q165.4063,497.0625 164.9531,497.0625 Q164.4844,497.0625 164.2188,496.6563 Q164.0938,496.4688 164.0938,495.7969 L162.6094,495.7969 Z " fill="#000000"/><text fill="#000000" font-family="sans-serif" font-size="14" lengthAdjust="spacing" textLength="27" x="184.25" y="500.7969">chat</text><line style="stroke:#181818;stroke-width:0.5;" x1="93.5" x2="269.5" y1="511" y2="511"/><ellipse cx="103.5" cy="525.8105" fill="#000000" rx="3" ry="3" style="stroke:#000000;stroke-width:1.0;"/><text fill="#000000" font-family="sans-serif" font-size="14" lengthAdjust="spacing" textLength="152" x="112.5" y="530.1074">id: number «generated»</text><line style="stroke:#181818;stroke-width:1.0;" x1="93.5" x2="269.5" y1="537.6211" y2="537.6211"/><ellipse cx="103.5" cy="552.4316" fill="#000000" rx="3" ry="3" style="stroke:#000000;stroke-width:1.0;"/><text fill="#000000" font-family="sans-serif" font-size="14" lengthAdjust="spacing" textLength="100" x="112.5" y="556.7285">chat_name: text</text></g><!--MD5=[b75e52e7bf84b64ad07c77d9428faaa8]
link customer to customer_chat--><g id="link_customer_customer_chat"><path codeLine="26" d="M108.11,282.35 C107.71,296.44 107.28,311.76 106.89,325.83 " fill="none" id="customer-customer_chat" style="stroke:#181818;stroke-width:1.0;stroke-dasharray:7.0,7.0;"/><line style="stroke:#181818;stroke-width:1.0;" x1="104.2174" x2="112.2141" y1="278.1341" y2="278.3626"/><line style="stroke:#181818;stroke-width:1.0;" x1="104.1317" x2="112.1284" y1="281.1329" y2="281.3614"/><line style="stroke:#181818;stroke-width:1.0;" x1="108.1015" x2="108.33" y1="282.2467" y2="274.25"/><line style="stroke:#181818;stroke-width:1.0;" x1="106.8889" x2="112.6575" y1="325.9533" y2="334.1217"/><line style="stroke:#181818;stroke-width:1.0;" x1="106.8889" x2="100.6625" y1="325.9533" y2="333.7783"/><line style="stroke:#181818;stroke-width:1.0;" x1="106.8889" x2="106.66" y1="325.9533" y2="333.95"/><ellipse cx="107.0606" cy="319.9557" fill="none" rx="4" ry="4" style="stroke:#181818;stroke-width:1.0;"/></g><!--MD5=[6c9a9350a527ae0fd699de5e2d36c8f3]
link customer_chat to chat--><g id="link_customer_chat_chat"><path codeLine="27" d="M131.51,426.44 C139.31,441.12 147.87,457.22 155.66,471.88 " fill="none" id="customer_chat-chat" style="stroke:#181818;stroke-width:1.0;stroke-dasharray:7.0,7.0;"/><line style="stroke:#181818;stroke-width:1.0;" x1="131.4384" x2="122.3894" y1="426.3175" y2="422.0613"/><line style="stroke:#181818;stroke-width:1.0;" x1="131.4384" x2="132.9906" y1="426.3175" y2="416.4387"/><line style="stroke:#181818;stroke-width:1.0;" x1="131.4384" x2="127.69" y1="426.3175" y2="419.25"/><line style="stroke:#181818;stroke-width:1.0;" x1="128.8417" x2="135.9092" y1="429.9586" y2="426.2102"/><line style="stroke:#181818;stroke-width:1.0;" x1="161.0756" x2="154.0108" y1="473.5408" y2="477.2944"/><line style="stroke:#181818;stroke-width:1.0;" x1="159.668" x2="152.6032" y1="470.8916" y2="474.6451"/><line style="stroke:#181818;stroke-width:1.0;" x1="155.6664" x2="159.42" y1="471.8853" y2="478.95"/></g><!--MD5=[9916f10841cbbccd2b488345fbf4ca69]
link message to customer--><g id="link_message_customer"><path codeLine="28" d="M151.33,136.68 C144.66,151.64 137.71,167.23 131.44,181.3 " fill="none" id="message-customer" style="stroke:#181818;stroke-width:1.0;stroke-dasharray:7.0,7.0;"/><line style="stroke:#181818;stroke-width:1.0;" x1="151.4356" x2="149.2089" y1="136.4481" y2="126.6992"/><line style="stroke:#181818;stroke-width:1.0;" x1="151.4356" x2="160.1711" y1="136.4481" y2="131.5808"/><line style="stroke:#181818;stroke-width:1.0;" x1="151.4356" x2="154.69" y1="136.4481" y2="129.14"/><ellipse cx="148.9948" cy="141.9292" fill="none" rx="4" ry="4" style="stroke:#181818;stroke-width:1.0;"/><line style="stroke:#181818;stroke-width:1.0;" x1="133.3127" x2="126.007" y1="186.917" y2="183.6573"/><line style="stroke:#181818;stroke-width:1.0;" x1="134.5351" x2="127.2294" y1="184.1773" y2="180.9176"/><line style="stroke:#181818;stroke-width:1.0;" x1="131.2897" x2="128.03" y1="181.6342" y2="188.94"/></g><!--MD5=[cc8ee04d196253b1481f070cb82ab35d]
link message to chat--><g id="link_message_chat"><path codeLine="29" d="M205.33,137.13 C210.24,153.89 214.75,171.93 217.5,189 C233.74,289.94 240.58,318.56 221.5,419 C218.19,436.43 211.95,454.69 205.36,470.85 " fill="none" id="message-chat" style="stroke:#181818;stroke-width:1.0;stroke-dasharray:7.0,7.0;"/><line style="stroke:#181818;stroke-width:1.0;" x1="205.1914" x2="197.1436" y1="136.6718" y2="130.7361"/><line style="stroke:#181818;stroke-width:1.0;" x1="205.1914" x2="208.6364" y1="136.6718" y2="127.2839"/><line style="stroke:#181818;stroke-width:1.0;" x1="205.1914" x2="202.89" y1="136.6718" y2="129.01"/><ellipse cx="206.9175" cy="142.4182" fill="none" rx="4" ry="4" style="stroke:#181818;stroke-width:1.0;"/><line style="stroke:#181818;stroke-width:1.0;" x1="207.3428" x2="199.9612" y1="476.4512" y2="473.3672"/><line style="stroke:#181818;stroke-width:1.0;" x1="208.4993" x2="201.1177" y1="473.6831" y2="470.599"/><line style="stroke:#181818;stroke-width:1.0;" x1="205.194" x2="202.11" y1="471.2183" y2="478.6"/></g><!--MD5=[98192a0a73cdf91f01066342903769de]
@startuml database
entity customer {
  *id: number <<generated>>
  - -
  *username: text <<unique>>
}

entity message {
  *id: number <<generated>>
  - -
  *customer_id: number <<FK>>
  *chat_id: number <<FK>>
  *msg_content: text
}

entity customer_chat {
  *chat_id: number <<FK>>
  *customer_id: number <<FK>>
}

entity chat {
  *id: number <<generated>>
  - -
  *chat_name: text
}

customer ||..o{ customer_chat
customer_chat }|..|| chat
message }o..|| customer
message }o..|| chat

@enduml

PlantUML version 1.2022.13(Sat Nov 19 14:22:17 CET 2022)
(GPL source distribution)
Java Runtime: OpenJDK Runtime Environment
JVM: OpenJDK 64-Bit Server VM
Default Encoding: Cp1252
Language: it
Country: IT
--></g></svg>