<?xml version="1.0" encoding="UTF-8" standalone="no"?>
<svg xmlns="http://www.w3.org/2000/svg" contentStyleType="text/css"
     height="595px" preserveAspectRatio="none" style="width:277px;height:595px;background:#FFFFFF;" version="1.1"
     viewBox="0 0 277 595" width="277px" zoomAndPan="magnify">
    <defs/>
    <g><!--MD5=[3fd616f346a44cd59a91eb10b19e157c]
class User-->
        <g id="elem_User">
            <rect codeLine="1" fill="#F1F1F1" height="105.2038" id="User" rx="2.5" ry="2.5"
                  style="stroke:#181818;stroke-width:0.5;" width="189" x="7" y="191"/>
            <ellipse cx="81.75" cy="207" fill="#ADD1B2" rx="11" ry="11" style="stroke:#181818;stroke-width:1.0;"/>
            <path d="M78.1094,213.5 L78.1094,201.3594 L85.7656,201.3594 L85.7656,203.4844 L80.4844,203.4844 L80.4844,206.1406 L85.5,206.1406 L85.5,208.2656 L80.4844,208.2656 L80.4844,211.375 L85.7656,211.375 L85.7656,213.5 L78.1094,213.5 Z "
                  fill="#000000"/>
            <text fill="#000000" font-family="sans-serif" font-size="14" lengthAdjust="spacing" textLength="31"
                  x="102.25" y="212.432">User
            </text>
            <line style="stroke:#181818;stroke-width:0.5;" x1="8" x2="195" y1="223" y2="223"/>
            <ellipse cx="18" cy="234" fill="#000000" rx="3" ry="3" style="stroke:#000000;stroke-width:1.0;"/>
            <text fill="#000000" font-family="sans-serif" font-size="14" lengthAdjust="spacing" textLength="163" x="27"
                  y="241.9659">id: number «generated»
            </text>
            <line style="stroke:#181818;stroke-width:1.0;" x1="8" x2="195" y1="250.0679" y2="250.0679"/>
            <ellipse cx="18" cy="261.0679" fill="#000000" rx="3" ry="3" style="stroke:#000000;stroke-width:1.0;"/>
            <text fill="#000000" font-family="sans-serif" font-size="14" lengthAdjust="spacing" textLength="107" x="27"
                  y="269.0339">user_name: text
            </text>
            <ellipse cx="18" cy="280.1358" fill="#000000" rx="3" ry="3" style="stroke:#000000;stroke-width:1.0;"/>
            <text fill="#000000" font-family="sans-serif" font-size="14" lengthAdjust="spacing" textLength="98" x="27"
                  y="288.1018">password: text
            </text>
        </g><!--MD5=[bea5b0d46523efab5ea1c1d339f396f0]
class Message-->
        <g id="elem_Message">
            <rect codeLine="8" fill="#F1F1F1" height="124.2717" id="Message" rx="2.5" ry="2.5"
                  style="stroke:#181818;stroke-width:0.5;" width="189" x="81" y="7"/>
            <ellipse cx="141.25" cy="23" fill="#ADD1B2" rx="11" ry="11" style="stroke:#181818;stroke-width:1.0;"/>
            <path d="M137.6094,29.5 L137.6094,17.3594 L145.2656,17.3594 L145.2656,19.4844 L139.9844,19.4844 L139.9844,22.1406 L145,22.1406 L145,24.2656 L139.9844,24.2656 L139.9844,27.375 L145.2656,27.375 L145.2656,29.5 L137.6094,29.5 Z "
                  fill="#000000"/>
            <text fill="#000000" font-family="sans-serif" font-size="14" lengthAdjust="spacing" textLength="60"
                  x="161.75" y="28.432">Message
            </text>
            <line style="stroke:#181818;stroke-width:0.5;" x1="82" x2="269" y1="39" y2="39"/>
            <ellipse cx="92" cy="50" fill="#000000" rx="3" ry="3" style="stroke:#000000;stroke-width:1.0;"/>
            <text fill="#000000" font-family="sans-serif" font-size="14" lengthAdjust="spacing" textLength="163" x="101"
                  y="57.9659">id: number «generated»
            </text>
            <line style="stroke:#181818;stroke-width:1.0;" x1="82" x2="269" y1="66.0679" y2="66.0679"/>
            <ellipse cx="92" cy="77.0679" fill="#000000" rx="3" ry="3" style="stroke:#000000;stroke-width:1.0;"/>
            <text fill="#000000" font-family="sans-serif" font-size="14" lengthAdjust="spacing" textLength="145" x="101"
                  y="85.0339">user_id: number «FK»
            </text>
            <ellipse cx="92" cy="96.1358" fill="#000000" rx="3" ry="3" style="stroke:#000000;stroke-width:1.0;"/>
            <text fill="#000000" font-family="sans-serif" font-size="14" lengthAdjust="spacing" textLength="144" x="101"
                  y="104.1018">chat_id: number «FK»
            </text>
            <ellipse cx="92" cy="115.2038" fill="#000000" rx="3" ry="3" style="stroke:#000000;stroke-width:1.0;"/>
            <text fill="#000000" font-family="sans-serif" font-size="14" lengthAdjust="spacing" textLength="119" x="101"
                  y="123.1697">msg_content: text
            </text>
        </g><!--MD5=[e9727e7a7a45450e307ba0bd285d9c00]
class UserChat-->
        <g id="elem_UserChat">
            <rect codeLine="16" fill="#F1F1F1" height="86.1358" id="UserChat" rx="2.5" ry="2.5"
                  style="stroke:#181818;stroke-width:0.5;" width="171" x="21" y="356"/>
            <ellipse cx="71.25" cy="372" fill="#ADD1B2" rx="11" ry="11" style="stroke:#181818;stroke-width:1.0;"/>
            <path d="M67.6094,378.5 L67.6094,366.3594 L75.2656,366.3594 L75.2656,368.4844 L69.9844,368.4844 L69.9844,371.1406 L75,371.1406 L75,373.2656 L69.9844,373.2656 L69.9844,376.375 L75.2656,376.375 L75.2656,378.5 L67.6094,378.5 Z "
                  fill="#000000"/>
            <text fill="#000000" font-family="sans-serif" font-size="14" lengthAdjust="spacing" textLength="62"
                  x="91.75" y="377.432">UserChat
            </text>
            <line style="stroke:#181818;stroke-width:0.5;" x1="22" x2="191" y1="388" y2="388"/>
            <ellipse cx="32" cy="399" fill="#000000" rx="3" ry="3" style="stroke:#000000;stroke-width:1.0;"/>
            <text fill="#000000" font-family="sans-serif" font-size="14" lengthAdjust="spacing" textLength="144" x="41"
                  y="406.9659">chat_id: number «FK»
            </text>
            <ellipse cx="32" cy="418.0679" fill="#000000" rx="3" ry="3" style="stroke:#000000;stroke-width:1.0;"/>
            <text fill="#000000" font-family="sans-serif" font-size="14" lengthAdjust="spacing" textLength="145" x="41"
                  y="426.0339">user_id: number «FK»
            </text>
            <line style="stroke:#181818;stroke-width:0.5;" x1="22" x2="191" y1="434.1358" y2="434.1358"/>
        </g><!--MD5=[50d4997affe4b7e1b12b08ba12feba96]
class Chat-->
        <g id="elem_Chat">
            <rect codeLine="21" fill="#F1F1F1" height="86.1358" id="Chat" rx="2.5" ry="2.5"
                  style="stroke:#181818;stroke-width:0.5;" width="189" x="81" y="502"/>
            <ellipse cx="155.75" cy="518" fill="#ADD1B2" rx="11" ry="11" style="stroke:#181818;stroke-width:1.0;"/>
            <path d="M152.1094,524.5 L152.1094,512.3594 L159.7656,512.3594 L159.7656,514.4844 L154.4844,514.4844 L154.4844,517.1406 L159.5,517.1406 L159.5,519.2656 L154.4844,519.2656 L154.4844,522.375 L159.7656,522.375 L159.7656,524.5 L152.1094,524.5 Z "
                  fill="#000000"/>
            <text fill="#000000" font-family="sans-serif" font-size="14" lengthAdjust="spacing" textLength="31"
                  x="176.25" y="523.432">Chat
            </text>
            <line style="stroke:#181818;stroke-width:0.5;" x1="82" x2="269" y1="534" y2="534"/>
            <ellipse cx="92" cy="545" fill="#000000" rx="3" ry="3" style="stroke:#000000;stroke-width:1.0;"/>
            <text fill="#000000" font-family="sans-serif" font-size="14" lengthAdjust="spacing" textLength="163" x="101"
                  y="552.9659">id: number «generated»
            </text>
            <line style="stroke:#181818;stroke-width:1.0;" x1="82" x2="269" y1="561.0679" y2="561.0679"/>
            <ellipse cx="92" cy="572.0679" fill="#000000" rx="3" ry="3" style="stroke:#000000;stroke-width:1.0;"/>
            <text fill="#000000" font-family="sans-serif" font-size="14" lengthAdjust="spacing" textLength="106" x="101"
                  y="580.0339">chat_name: text
            </text>
        </g><!--MD5=[c526094ff401c4ff5fa4604a52d18674]
link User to UserChat-->
        <g id="link_User_UserChat">
            <path codeLine="27" d="M103.45,304.32 C103.91,318.48 104.4,333.45 104.84,347.17 " fill="none"
                  id="User-UserChat" style="stroke:#181818;stroke-width:1.0;stroke-dasharray:7.0,7.0;"/>
            <line style="stroke:#181818;stroke-width:1.0;" x1="104.8625" x2="111.1169" y1="347.5341" y2="355.3369"/>
            <line style="stroke:#181818;stroke-width:1.0;" x1="104.8625" x2="99.1231" y1="347.5341" y2="355.7231"/>
            <line style="stroke:#181818;stroke-width:1.0;" x1="104.8625" x2="105.12" y1="347.5341" y2="355.53"/>
            <ellipse cx="104.6694" cy="341.5373" fill="none" rx="4" ry="4" style="stroke:#181818;stroke-width:1.0;"/>
            <line style="stroke:#181818;stroke-width:1.0;" x1="99.3179" x2="107.3133" y1="300.1733" y2="299.9021"/>
            <line style="stroke:#181818;stroke-width:1.0;" x1="99.4197" x2="107.4151" y1="303.1716" y2="302.9003"/>
            <line style="stroke:#181818;stroke-width:1.0;" x1="103.4513" x2="103.18" y1="304.0354" y2="296.04"/>
        </g><!--MD5=[e8bee7f724cb8d9f9bdf5902abbfe8f4]
link UserChat to Chat-->
        <g id="link_UserChat_Chat">
            <path codeLine="28" d="M130.3,449.67 C137.21,464.09 144.75,479.83 151.66,494.25 " fill="none"
                  id="UserChat-Chat" style="stroke:#181818;stroke-width:1.0;stroke-dasharray:7.0,7.0;"/>
            <line style="stroke:#181818;stroke-width:1.0;" x1="157.0886" x2="149.8742" y1="496.3242" y2="499.7814"/>
            <line style="stroke:#181818;stroke-width:1.0;" x1="155.7922" x2="148.5777" y1="493.6188" y2="497.076"/>
            <line style="stroke:#181818;stroke-width:1.0;" x1="151.7528" x2="155.21" y1="494.4456" y2="501.66"/>
            <line style="stroke:#181818;stroke-width:1.0;" x1="130.0972" x2="121.2292" y1="449.2544" y2="444.6329"/>
            <line style="stroke:#181818;stroke-width:1.0;" x1="130.0972" x2="132.0508" y1="449.2544" y2="439.4471"/>
            <line style="stroke:#181818;stroke-width:1.0;" x1="130.0972" x2="126.64" y1="449.2544" y2="442.04"/>
            <line style="stroke:#181818;stroke-width:1.0;" x1="127.3543" x2="134.5687" y1="452.7866" y2="449.3294"/>
        </g><!--MD5=[249b8abd4e729a16b977da04c600c214]
link Message to User-->
        <g id="link_Message_User">
            <path codeLine="29" d="M146.04,138.68 C139.69,153.48 133.03,168.99 126.86,183.39 " fill="none"
                  id="Message-User" style="stroke:#181818;stroke-width:1.0;stroke-dasharray:7.0,7.0;"/>
            <line style="stroke:#181818;stroke-width:1.0;" x1="128.9347" x2="121.5853" y1="188.7053" y2="185.5453"/>
            <line style="stroke:#181818;stroke-width:1.0;" x1="130.1197" x2="122.7703" y1="185.9492" y2="182.7892"/>
            <line style="stroke:#181818;stroke-width:1.0;" x1="126.84" x2="123.68" y1="183.4505" y2="190.8"/>
            <line style="stroke:#181818;stroke-width:1.0;" x1="146.0452" x2="143.6862" y1="138.6517" y2="128.9339"/>
            <line style="stroke:#181818;stroke-width:1.0;" x1="146.0452" x2="154.7138" y1="138.6517" y2="133.6661"/>
            <line style="stroke:#181818;stroke-width:1.0;" x1="146.0452" x2="149.2" y1="138.6517" y2="131.3"/>
            <ellipse cx="143.6791" cy="144.1654" fill="none" rx="4" ry="4" style="stroke:#181818;stroke-width:1.0;"/>
        </g><!--MD5=[b3620683e9ca6f4642548156c336b1ce]
link Message to Chat-->
        <g id="link_Message_Chat">
            <path codeLine="30"
                  d="M201.03,138.66 C206.19,155.54 210.85,173.73 213.5,191 C218.29,222.23 209.55,441.72 209.5,442 C206.46,459.22 201.1,477.49 195.51,493.75 "
                  fill="none" id="Message-Chat" style="stroke:#181818;stroke-width:1.0;stroke-dasharray:7.0,7.0;"/>
            <line style="stroke:#181818;stroke-width:1.0;" x1="197.8618" x2="190.3163" y1="499.1063" y2="496.4482"/>
            <line style="stroke:#181818;stroke-width:1.0;" x1="198.8586" x2="191.3131" y1="496.2767" y2="493.6186"/>
            <line style="stroke:#181818;stroke-width:1.0;" x1="195.4181" x2="192.76" y1="494.0045" y2="501.55"/>
            <line style="stroke:#181818;stroke-width:1.0;" x1="201.0208" x2="192.8966" y1="138.6412" y2="132.8106"/>
            <line style="stroke:#181818;stroke-width:1.0;" x1="201.0208" x2="204.3434" y1="138.6412" y2="129.2094"/>
            <line style="stroke:#181818;stroke-width:1.0;" x1="201.0208" x2="198.62" y1="138.6412" y2="131.01"/>
            <ellipse cx="202.8215" cy="144.3647" fill="none" rx="4" ry="4" style="stroke:#181818;stroke-width:1.0;"/>
        </g><!--MD5=[b7275213879f3a867de1a6209212da51]
@startuml database
entity User {
  *id: number <<generated>>
  - -
  *user_name: text
  *password: text
}

entity Message {
  *id: number <<generated>>
  - -
  *user_id: number <<FK>>
  *chat_id: number <<FK>>
  *msg_content: text
}

entity UserChat {
  *chat_id: number <<FK>>
  *user_id: number <<FK>>
}

entity Chat {
  *id: number <<generated>>
  - -
  *chat_name: text
}

User ||..o{ UserChat
UserChat }|..|| Chat
Message }o..|| User
Message }o..|| Chat

@enduml

PlantUML version 1.2022.6(Tue Jun 21 19:34:49 CEST 2022)
(GPL source distribution)
Java Runtime: OpenJDK Runtime Environment
JVM: OpenJDK 64-Bit Server VM
Default Encoding: UTF-8
Language: it
Country: IT
-->
    </g>
</svg>