<?xml version="1.0" encoding="UTF-8" standalone="no"?><svg xmlns="http://www.w3.org/2000/svg" xmlns:xlink="http://www.w3.org/1999/xlink" contentStyleType="text/css" height="423px" preserveAspectRatio="none" style="width:427px;height:423px;background:#FFFFFF;" version="1.1" viewBox="0 0 427 423" width="427px" zoomAndPan="magnify"><defs/><g><path d="M19.5,7 L401.82,7 A12.5,12.5 0 0 1 414.32,19.5 L414.32,36.0679 L7,36.0679 L7,19.5 A12.5,12.5 0 0 1 19.5,7 " fill="#F1F1F1" style="stroke:#F1F1F1;stroke-width:1.0;"/><path d="M7,36.0679 L414.32,36.0679 L414.32,397.5679 A12.5,12.5 0 0 1 401.82,410.0679 L19.5,410.0679 A12.5,12.5 0 0 1 7,397.5679 L7,36.0679 " fill="#FFFFFF" style="stroke:#FFFFFF;stroke-width:1.0;"/><rect height="403.0679" rx="12.5" ry="12.5" style="stroke:#181818;stroke-width:0.5;fill:none;" width="407.32" x="7" y="7"/><line style="stroke:#181818;stroke-width:0.5;fill:none;" x1="7" x2="414.32" y1="36.0679" y2="36.0679"/><text fill="#000000" font-family="sans-serif" font-size="14" lengthAdjust="spacing" textLength="63" x="179.16" y="26.9659">RaftNode</text><ellipse cx="137.32" cy="57.0679" fill="#222222" rx="10" ry="10" style="stroke:none;stroke-width:1.0;"/><g id="RaftNode.Follower"><rect fill="#F1F1F1" height="50" rx="12.5" ry="12.5" style="stroke:#181818;stroke-width:0.5;" width="76" x="99.32" y="104.0679"/><line style="stroke:#181818;stroke-width:0.5;" x1="99.32" x2="175.32" y1="133.1358" y2="133.1358"/><text fill="#000000" font-family="sans-serif" font-size="14" lengthAdjust="spacing" textLength="56" x="109.32" y="124.0339">Follower</text></g><g id="RaftNode.Candidate"><rect fill="#F1F1F1" height="50" rx="12.5" ry="12.5" style="stroke:#181818;stroke-width:0.5;" width="89" x="50.82" y="227.0679"/><line style="stroke:#181818;stroke-width:0.5;" x1="50.82" x2="139.82" y1="256.1358" y2="256.1358"/><text fill="#000000" font-family="sans-serif" font-size="14" lengthAdjust="spacing" textLength="69" x="60.82" y="247.0339">Candidate</text></g><g id="RaftNode.Leader"><rect fill="#F1F1F1" height="50" rx="12.5" ry="12.5" style="stroke:#181818;stroke-width:0.5;" width="66" x="159.32" y="350.0679"/><line style="stroke:#181818;stroke-width:0.5;" x1="159.32" x2="225.32" y1="379.1358" y2="379.1358"/><text fill="#000000" font-family="sans-serif" font-size="14" lengthAdjust="spacing" textLength="46" x="169.32" y="370.0339">Leader</text></g><!--MD5=[e308e98c9a8c1f8adc2060339ecfa5e7]
link *start*RaftNode to Follower--><g id="link_*start*RaftNode_Follower"><path d="M137.32,67.2179 C137.32,75.2579 137.32,87.3979 137.32,98.7179 " fill="none" id="*start*RaftNode-to-Follower" style="stroke:#181818;stroke-width:1.0;"/><polygon fill="#181818" points="137.32,103.8479,141.32,94.8479,137.32,98.8479,133.32,94.8479,137.32,103.8479" style="stroke:#181818;stroke-width:1.0;"/></g><!--MD5=[98c0ced027e0b4cc50736fcd442f2beb]
link Candidate to Follower--><g id="link_Candidate_Follower"><path d="M107.68,226.9479 C110.4,221.1679 113.12,214.9679 115.32,209.0679 C121.37,192.8979 126.63,174.3179 130.49,159.2379 " fill="none" id="Candidate-to-Follower" style="stroke:#181818;stroke-width:1.0;"/><polygon fill="#181818" points="131.74,154.2679,125.6712,162.0248,130.524,159.1178,133.431,163.9705,131.74,154.2679" style="stroke:#181818;stroke-width:1.0;"/><text fill="#000000" font-family="sans-serif" font-size="13" lengthAdjust="spacing" textLength="134" x="128.32" y="186.9649">Discovered new leader</text><text fill="#000000" font-family="sans-serif" font-size="13" lengthAdjust="spacing" textLength="73" x="158.82" y="204.6709">or new term</text></g><!--MD5=[9b3349326a9b99010591ee0241722246]
link Follower to Candidate--><g id="link_Follower_Candidate"><path d="M99.22,133.7479 C74.26,138.3679 43.38,148.7479 27.32,172.0679 C18,185.6079 19.31,194.7079 27.32,209.0679 C31.89,217.2479 38.77,224.0379 46.43,229.5979 " fill="none" id="Follower-to-Candidate" style="stroke:#181818;stroke-width:1.0;"/><polygon fill="#181818" points="50.76,232.5579,45.5764,224.1835,46.6286,229.7417,41.0704,230.7938,50.76,232.5579" style="stroke:#181818;stroke-width:1.0;"/><text fill="#000000" font-family="sans-serif" font-size="13" lengthAdjust="spacing" textLength="82" x="28.32" y="195.9649">Timer expired</text></g><!--MD5=[d550e816c8cf91fb89d90b4e27b9de5c]
link Candidate to Candidate--><g id="link_Candidate_Candidate"><path d="M139.99,241.0679 C150.27,242.0179 157.82,245.6779 157.82,252.0679 C157.82,257.3579 152.64,260.7779 145.02,262.3379 " fill="none" id="Candidate-to-Candidate" style="stroke:#181818;stroke-width:1.0;"/><polygon fill="#181818" points="139.99,263.0679,149.476,265.7167,144.9369,262.3409,148.3127,257.8017,139.99,263.0679" style="stroke:#181818;stroke-width:1.0;"/><text fill="#000000" font-family="sans-serif" font-size="13" lengthAdjust="spacing" textLength="82" x="163.82" y="257.4649">Timer expired</text></g><!--MD5=[6653f7a5f8de3e5c088240521838e486]
link Candidate to Leader--><g id="link_Candidate_Leader"><path d="M114.72,277.2679 C130.58,297.0479 153.03,325.0479 169.71,345.8579 " fill="none" id="Candidate-to-Leader" style="stroke:#181818;stroke-width:1.0;"/><polygon fill="#181818" points="172.96,349.9179,170.4485,340.3947,169.8313,346.0178,164.2082,345.4006,172.96,349.9179" style="stroke:#181818;stroke-width:1.0;"/><text fill="#000000" font-family="sans-serif" font-size="13" lengthAdjust="spacing" textLength="89" x="167.32" y="309.9649">Received votes</text><text fill="#000000" font-family="sans-serif" font-size="13" lengthAdjust="spacing" textLength="105" x="159.32" y="327.6709">from the majority</text></g><!--MD5=[7ff089cae5379574e9f6502cb4b97f73]
link Leader to Follower--><g id="link_Leader_Follower"><path d="M225.34,364.8779 C241.61,358.4979 259.76,348.1779 269.32,332.0679 C305.63,270.9179 309.64,229.2279 267.32,172.0679 C247.45,145.2179 210.09,135.1979 180.5,131.6179 " fill="none" id="Leader-to-Follower" style="stroke:#181818;stroke-width:1.0;"/><polygon fill="#181818" points="175.45,131.0579,183.9626,136.0112,180.4205,131.6007,184.831,128.0585,175.45,131.0579" style="stroke:#181818;stroke-width:1.0;"/><text fill="#000000" font-family="sans-serif" font-size="13" lengthAdjust="spacing" textLength="106" x="298.32" y="248.4649">Discovered server</text><text fill="#000000" font-family="sans-serif" font-size="13" lengthAdjust="spacing" textLength="100" x="301.32" y="266.1709">with higher term</text></g><!--MD5=[3bf113d5b9420ecfb1f254dfb672e9d7]
@startuml raftNode_stateDiagram

state RaftNode {
  [*] - -> Follower
  
  Candidate - -> Follower: Discovered new leader\nor new term
  Follower - -> Candidate: Timer expired

  Candidate - -> Candidate: Timer expired

  Candidate - -> Leader: Received votes\nfrom the majority
  Leader - -> Follower: Discovered server\nwith higher term
}

@enduml

PlantUML version 1.2022.6(Tue Jun 21 19:34:49 CEST 2022)
(GPL source distribution)
Java Runtime: OpenJDK Runtime Environment
JVM: OpenJDK 64-Bit Server VM
Default Encoding: UTF-8
Language: it
Country: IT
--></g></svg>